# 3ds Max Wavefront OBJ Exporter v0.97b - (c)2007 guruware
# File Created: 08.01.2016 21:21:09

mtllib model2.mtl

#
# object Pyramid001
#

v  0.0000 2.0000 -0.0000
v  -0.5000 0.0000 0.5000
v  0.5000 0.0000 0.5000
v  0.5000 0.0000 -0.5000
v  -0.5000 0.0000 -0.5000
v  0.0000 0.0000 -0.0000
v  0.0000 2.5000 -0.0000
v  -0.0000 2.4619 -0.1913
v  -0.0732 2.4619 -0.1768
v  -0.1353 2.4619 -0.1353
v  -0.1768 2.4619 -0.0732
v  -0.1913 2.4619 -0.0000
v  -0.1768 2.4619 0.0732
v  -0.1353 2.4619 0.1353
v  -0.0732 2.4619 0.1768
v  0.0000 2.4619 0.1913
v  0.0732 2.4619 0.1768
v  0.1353 2.4619 0.1353
v  0.1768 2.4619 0.0732
v  0.1913 2.4619 -0.0000
v  0.1768 2.4619 -0.0732
v  0.1353 2.4619 -0.1353
v  0.0732 2.4619 -0.1768
v  -0.1353 2.3536 -0.3266
v  -0.0000 2.3536 -0.3536
v  -0.2500 2.3536 -0.2500
v  -0.3266 2.3536 -0.1353
v  -0.3536 2.3536 -0.0000
v  -0.3266 2.3536 0.1353
v  -0.2500 2.3536 0.2500
v  -0.1353 2.3536 0.3266
v  0.0000 2.3536 0.3536
v  0.1353 2.3536 0.3266
v  0.2500 2.3536 0.2500
v  0.3266 2.3536 0.1353
v  0.3536 2.3536 -0.0000
v  0.3266 2.3536 -0.1353
v  0.2500 2.3536 -0.2500
v  0.1353 2.3536 -0.3266
v  -0.1768 2.1913 -0.4268
v  -0.0000 2.1913 -0.4619
v  -0.3266 2.1913 -0.3266
v  -0.4268 2.1913 -0.1768
v  -0.4619 2.1913 -0.0000
v  -0.4268 2.1913 0.1768
v  -0.3266 2.1913 0.3266
v  -0.1768 2.1913 0.4268
v  0.0000 2.1913 0.4619
v  0.1768 2.1913 0.4268
v  0.3266 2.1913 0.3266
v  0.4268 2.1913 0.1768
v  0.4619 2.1913 -0.0000
v  0.4268 2.1913 -0.1768
v  0.3266 2.1913 -0.3266
v  0.1768 2.1913 -0.4268
v  -0.1913 2.0000 -0.4619
v  -0.0000 2.0000 -0.5000
v  -0.3536 2.0000 -0.3536
v  -0.4619 2.0000 -0.1913
v  -0.5000 2.0000 -0.0000
v  -0.4619 2.0000 0.1913
v  -0.3536 2.0000 0.3536
v  -0.1913 2.0000 0.4619
v  0.0000 2.0000 0.5000
v  0.1913 2.0000 0.4619
v  0.3536 2.0000 0.3536
v  0.4619 2.0000 0.1913
v  0.5000 2.0000 -0.0000
v  0.4619 2.0000 -0.1913
v  0.3536 2.0000 -0.3536
v  0.1913 2.0000 -0.4619
v  -0.1768 1.8087 -0.4268
v  -0.0000 1.8087 -0.4619
v  -0.3266 1.8087 -0.3266
v  -0.4268 1.8087 -0.1768
v  -0.4619 1.8087 -0.0000
v  -0.4268 1.8087 0.1768
v  -0.3266 1.8087 0.3266
v  -0.1768 1.8087 0.4268
v  0.0000 1.8087 0.4619
v  0.1768 1.8087 0.4268
v  0.3266 1.8087 0.3266
v  0.4268 1.8087 0.1768
v  0.4619 1.8087 -0.0000
v  0.4268 1.8087 -0.1768
v  0.3266 1.8087 -0.3266
v  0.1768 1.8087 -0.4268
v  -0.1353 1.6464 -0.3266
v  -0.0000 1.6464 -0.3536
v  -0.2500 1.6464 -0.2500
v  -0.3266 1.6464 -0.1353
v  -0.3536 1.6464 -0.0000
v  -0.3266 1.6464 0.1353
v  -0.2500 1.6464 0.2500
v  -0.1353 1.6464 0.3266
v  0.0000 1.6464 0.3536
v  0.1353 1.6464 0.3266
v  0.2500 1.6464 0.2500
v  0.3266 1.6464 0.1353
v  0.3536 1.6464 -0.0000
v  0.3266 1.6464 -0.1353
v  0.2500 1.6464 -0.2500
v  0.1353 1.6464 -0.3266
v  -0.0732 1.5381 -0.1768
v  -0.0000 1.5381 -0.1913
v  -0.1353 1.5381 -0.1353
v  -0.1768 1.5381 -0.0732
v  -0.1913 1.5381 -0.0000
v  -0.1768 1.5381 0.0732
v  -0.1353 1.5381 0.1353
v  -0.0732 1.5381 0.1768
v  0.0000 1.5381 0.1913
v  0.0732 1.5381 0.1768
v  0.1353 1.5381 0.1353
v  0.1768 1.5381 0.0732
v  0.1913 1.5381 -0.0000
v  0.1768 1.5381 -0.0732
v  0.1353 1.5381 -0.1353
v  0.0732 1.5381 -0.1768
v  0.0000 1.5000 -0.0000
# 120 vertices

vn 0.0000 0.2425 0.9701
vn 0.9701 0.2425 -0.0000
vn 0.0000 0.2425 -0.9701
vn -0.9701 0.2425 -0.0000
vn 0.0000 -1.0000 -0.0000
vn 0.0000 1.0000 -0.0000
vn -0.0000 0.9152 -0.4031
vn -0.1543 0.9152 -0.3724
vn -0.2850 0.9152 -0.2850
vn -0.3724 0.9152 -0.1543
vn -0.4031 0.9152 -0.0000
vn -0.3724 0.9152 0.1543
vn -0.2850 0.9152 0.2850
vn -0.1543 0.9152 0.3724
vn 0.0000 0.9152 0.4031
vn 0.1543 0.9152 0.3724
vn 0.2850 0.9152 0.2850
vn 0.3724 0.9152 0.1543
vn 0.4031 0.9152 -0.0000
vn 0.3724 0.9152 -0.1543
vn 0.2850 0.9152 -0.2850
vn 0.1543 0.9152 -0.3724
vn -0.2751 0.6952 -0.6641
vn -0.0000 0.6952 -0.7189
vn -0.5083 0.6952 -0.5083
vn -0.6641 0.6952 -0.2751
vn -0.7189 0.6952 -0.0000
vn -0.6641 0.6952 0.2751
vn -0.5083 0.6952 0.5083
vn -0.2751 0.6952 0.6641
vn 0.0000 0.6952 0.7189
vn 0.2751 0.6952 0.6641
vn 0.5083 0.6952 0.5083
vn 0.6641 0.6952 0.2751
vn 0.7189 0.6952 -0.0000
vn 0.6641 0.6952 -0.2751
vn 0.5083 0.6952 -0.5083
vn 0.2751 0.6952 -0.6641
vn -0.3549 0.3744 -0.8567
vn -0.0000 0.3744 -0.9273
vn -0.6557 0.3744 -0.6557
vn -0.8567 0.3744 -0.3549
vn -0.9273 0.3744 -0.0000
vn -0.8567 0.3744 0.3549
vn -0.6557 0.3744 0.6557
vn -0.3549 0.3744 0.8567
vn 0.0000 0.3744 0.9273
vn 0.3549 0.3744 0.8567
vn 0.6557 0.3744 0.6557
vn 0.8567 0.3744 0.3549
vn 0.9273 0.3744 -0.0000
vn 0.8567 0.3744 -0.3549
vn 0.6557 0.3744 -0.6557
vn 0.3549 0.3744 -0.8567
vn -0.3827 -0.0000 -0.9239
vn -0.0000 0.0000 -1.0000
vn -0.7071 -0.0000 -0.7071
vn -0.9239 0.0000 -0.3827
vn -1.0000 0.0000 -0.0000
vn -0.9239 0.0000 0.3827
vn -0.7071 -0.0000 0.7071
vn -0.3827 -0.0000 0.9239
vn 0.0000 -0.0000 1.0000
vn 0.3827 -0.0000 0.9239
vn 0.7071 0.0000 0.7071
vn 0.9239 0.0000 0.3827
vn 1.0000 -0.0000 -0.0000
vn 0.9239 0.0000 -0.3827
vn 0.7071 -0.0000 -0.7071
vn 0.3827 0.0000 -0.9239
vn -0.3549 -0.3744 -0.8567
vn -0.0000 -0.3744 -0.9273
vn -0.6557 -0.3744 -0.6557
vn -0.8567 -0.3744 -0.3549
vn -0.9273 -0.3744 -0.0000
vn -0.8567 -0.3744 0.3549
vn -0.6557 -0.3744 0.6557
vn -0.3549 -0.3744 0.8567
vn 0.0000 -0.3744 0.9273
vn 0.3549 -0.3744 0.8567
vn 0.6557 -0.3744 0.6557
vn 0.8567 -0.3744 0.3549
vn 0.9273 -0.3744 -0.0000
vn 0.8567 -0.3744 -0.3549
vn 0.6557 -0.3744 -0.6557
vn 0.3549 -0.3744 -0.8567
vn -0.2751 -0.6952 -0.6641
vn -0.0000 -0.6952 -0.7189
vn -0.5083 -0.6952 -0.5083
vn -0.6641 -0.6952 -0.2751
vn -0.7189 -0.6952 -0.0000
vn -0.6641 -0.6952 0.2751
vn -0.5083 -0.6952 0.5083
vn -0.2751 -0.6952 0.6641
vn 0.0000 -0.6952 0.7189
vn 0.2751 -0.6952 0.6641
vn 0.5083 -0.6952 0.5083
vn 0.6641 -0.6952 0.2751
vn 0.7189 -0.6952 -0.0000
vn 0.6641 -0.6952 -0.2751
vn 0.5083 -0.6952 -0.5083
vn 0.2751 -0.6952 -0.6641
vn -0.1543 -0.9152 -0.3724
vn -0.0000 -0.9152 -0.4031
vn -0.2850 -0.9152 -0.2850
vn -0.3724 -0.9152 -0.1543
vn -0.4031 -0.9152 -0.0000
vn -0.3724 -0.9152 0.1543
vn -0.2850 -0.9152 0.2850
vn -0.1543 -0.9152 0.3724
vn 0.0000 -0.9152 0.4031
vn 0.1543 -0.9152 0.3724
vn 0.2850 -0.9152 0.2850
vn 0.3724 -0.9152 0.1543
vn 0.4031 -0.9152 -0.0000
vn 0.3724 -0.9152 -0.1543
vn 0.2850 -0.9152 -0.2850
vn 0.1543 -0.9152 -0.3724
# 118 vertex normals

vt 0.5000 1.0000 0.0000
vt 0.0000 0.0000 0.0000
vt 1.0000 0.0000 0.0000
vt 0.0000 1.0000 0.0000
vt 0.5000 0.5000 0.0000
vt 1.0000 1.0000 0.0000
vt 0.0000 0.8750 0.0000
vt 0.0625 0.8750 0.0000
vt 0.0625 1.0000 0.0000
vt 0.1250 0.8750 0.0000
vt 0.1250 1.0000 0.0000
vt 0.1875 0.8750 0.0000
vt 0.1875 1.0000 0.0000
vt 0.2500 0.8750 0.0000
vt 0.2500 1.0000 0.0000
vt 0.3125 0.8750 0.0000
vt 0.3125 1.0000 0.0000
vt 0.3750 0.8750 0.0000
vt 0.3750 1.0000 0.0000
vt 0.4375 0.8750 0.0000
vt 0.4375 1.0000 0.0000
vt 0.5000 0.8750 0.0000
vt 0.5625 0.8750 0.0000
vt 0.5625 1.0000 0.0000
vt 0.6250 0.8750 0.0000
vt 0.6250 1.0000 0.0000
vt 0.6875 0.8750 0.0000
vt 0.6875 1.0000 0.0000
vt 0.7500 0.8750 0.0000
vt 0.7500 1.0000 0.0000
vt 0.8125 0.8750 0.0000
vt 0.8125 1.0000 0.0000
vt 0.8750 0.8750 0.0000
vt 0.8750 1.0000 0.0000
vt 0.9375 0.8750 0.0000
vt 0.9375 1.0000 0.0000
vt 1.0000 0.8750 0.0000
vt 0.0625 0.7500 0.0000
vt 0.0000 0.7500 0.0000
vt 0.1250 0.7500 0.0000
vt 0.1875 0.7500 0.0000
vt 0.2500 0.7500 0.0000
vt 0.3125 0.7500 0.0000
vt 0.3750 0.7500 0.0000
vt 0.4375 0.7500 0.0000
vt 0.5000 0.7500 0.0000
vt 0.5625 0.7500 0.0000
vt 0.6250 0.7500 0.0000
vt 0.6875 0.7500 0.0000
vt 0.7500 0.7500 0.0000
vt 0.8125 0.7500 0.0000
vt 0.8750 0.7500 0.0000
vt 0.9375 0.7500 0.0000
vt 1.0000 0.7500 0.0000
vt 0.0625 0.6250 0.0000
vt 0.0000 0.6250 0.0000
vt 0.1250 0.6250 0.0000
vt 0.1875 0.6250 0.0000
vt 0.2500 0.6250 0.0000
vt 0.3125 0.6250 0.0000
vt 0.3750 0.6250 0.0000
vt 0.4375 0.6250 0.0000
vt 0.5000 0.6250 0.0000
vt 0.5625 0.6250 0.0000
vt 0.6250 0.6250 0.0000
vt 0.6875 0.6250 0.0000
vt 0.7500 0.6250 0.0000
vt 0.8125 0.6250 0.0000
vt 0.8750 0.6250 0.0000
vt 0.9375 0.6250 0.0000
vt 1.0000 0.6250 0.0000
vt 0.0625 0.5000 0.0000
vt 0.0000 0.5000 0.0000
vt 0.1250 0.5000 0.0000
vt 0.1875 0.5000 0.0000
vt 0.2500 0.5000 0.0000
vt 0.3125 0.5000 0.0000
vt 0.3750 0.5000 0.0000
vt 0.4375 0.5000 0.0000
vt 0.5625 0.5000 0.0000
vt 0.6250 0.5000 0.0000
vt 0.6875 0.5000 0.0000
vt 0.7500 0.5000 0.0000
vt 0.8125 0.5000 0.0000
vt 0.8750 0.5000 0.0000
vt 0.9375 0.5000 0.0000
vt 1.0000 0.5000 0.0000
vt 0.0625 0.3750 0.0000
vt 0.0000 0.3750 0.0000
vt 0.1250 0.3750 0.0000
vt 0.1875 0.3750 0.0000
vt 0.2500 0.3750 0.0000
vt 0.3125 0.3750 0.0000
vt 0.3750 0.3750 0.0000
vt 0.4375 0.3750 0.0000
vt 0.5000 0.3750 0.0000
vt 0.5625 0.3750 0.0000
vt 0.6250 0.3750 0.0000
vt 0.6875 0.3750 0.0000
vt 0.7500 0.3750 0.0000
vt 0.8125 0.3750 0.0000
vt 0.8750 0.3750 0.0000
vt 0.9375 0.3750 0.0000
vt 1.0000 0.3750 0.0000
vt 0.0625 0.2500 0.0000
vt 0.0000 0.2500 0.0000
vt 0.1250 0.2500 0.0000
vt 0.1875 0.2500 0.0000
vt 0.2500 0.2500 0.0000
vt 0.3125 0.2500 0.0000
vt 0.3750 0.2500 0.0000
vt 0.4375 0.2500 0.0000
vt 0.5000 0.2500 0.0000
vt 0.5625 0.2500 0.0000
vt 0.6250 0.2500 0.0000
vt 0.6875 0.2500 0.0000
vt 0.7500 0.2500 0.0000
vt 0.8125 0.2500 0.0000
vt 0.8750 0.2500 0.0000
vt 0.9375 0.2500 0.0000
vt 1.0000 0.2500 0.0000
vt 0.0625 0.1250 0.0000
vt 0.0000 0.1250 0.0000
vt 0.1250 0.1250 0.0000
vt 0.1875 0.1250 0.0000
vt 0.2500 0.1250 0.0000
vt 0.3125 0.1250 0.0000
vt 0.3750 0.1250 0.0000
vt 0.4375 0.1250 0.0000
vt 0.5000 0.1250 0.0000
vt 0.5625 0.1250 0.0000
vt 0.6250 0.1250 0.0000
vt 0.6875 0.1250 0.0000
vt 0.7500 0.1250 0.0000
vt 0.8125 0.1250 0.0000
vt 0.8750 0.1250 0.0000
vt 0.9375 0.1250 0.0000
vt 1.0000 0.1250 0.0000
vt 0.0625 0.0000 0.0000
vt 0.1250 0.0000 0.0000
vt 0.1875 0.0000 0.0000
vt 0.2500 0.0000 0.0000
vt 0.3125 0.0000 0.0000
vt 0.3750 0.0000 0.0000
vt 0.4375 0.0000 0.0000
vt 0.5000 0.0000 0.0000
vt 0.5625 0.0000 0.0000
vt 0.6250 0.0000 0.0000
vt 0.6875 0.0000 0.0000
vt 0.7500 0.0000 0.0000
vt 0.8125 0.0000 0.0000
vt 0.8750 0.0000 0.0000
vt 0.9375 0.0000 0.0000
# 153 texture coords

g Pyramid001
usemtl 08___Default
s 4
f 1/1/1 2/2/1 3/3/1 
s 2
f 1/1/2 3/2/2 4/3/2 
s 16
f 1/1/3 4/2/3 5/3/3 
s 32
f 1/1/4 5/2/4 2/3/4 
s 8
f 2/4/5 6/5/5 3/6/5 
f 3/6/5 6/5/5 4/3/5 
f 4/3/5 6/5/5 5/2/5 
f 5/2/5 6/5/5 2/4/5 
usemtl 10___Default
s 1
f 7/4/6 8/7/7 9/8/8 
f 7/9/6 9/8/8 10/10/9 
f 7/11/6 10/10/9 11/12/10 
f 7/13/6 11/12/10 12/14/11 
f 7/15/6 12/14/11 13/16/12 
f 7/17/6 13/16/12 14/18/13 
f 7/19/6 14/18/13 15/20/14 
f 7/21/6 15/20/14 16/22/15 
f 7/1/6 16/22/15 17/23/16 
f 7/24/6 17/23/16 18/25/17 
f 7/26/6 18/25/17 19/27/18 
f 7/28/6 19/27/18 20/29/19 
f 7/30/6 20/29/19 21/31/20 
f 7/32/6 21/31/20 22/33/21 
f 7/34/6 22/33/21 23/35/22 
f 7/36/6 23/35/22 8/37/7 
f 24/38/23 9/8/8 8/7/7 
f 8/7/7 25/39/24 24/38/23 
f 26/40/25 10/10/9 9/8/8 
f 9/8/8 24/38/23 26/40/25 
f 27/41/26 11/12/10 10/10/9 
f 10/10/9 26/40/25 27/41/26 
f 28/42/27 12/14/11 11/12/10 
f 11/12/10 27/41/26 28/42/27 
f 29/43/28 13/16/12 12/14/11 
f 12/14/11 28/42/27 29/43/28 
f 30/44/29 14/18/13 13/16/12 
f 13/16/12 29/43/28 30/44/29 
f 31/45/30 15/20/14 14/18/13 
f 14/18/13 30/44/29 31/45/30 
f 32/46/31 16/22/15 15/20/14 
f 15/20/14 31/45/30 32/46/31 
f 33/47/32 17/23/16 16/22/15 
f 16/22/15 32/46/31 33/47/32 
f 34/48/33 18/25/17 17/23/16 
f 17/23/16 33/47/32 34/48/33 
f 35/49/34 19/27/18 18/25/17 
f 18/25/17 34/48/33 35/49/34 
f 36/50/35 20/29/19 19/27/18 
f 19/27/18 35/49/34 36/50/35 
f 37/51/36 21/31/20 20/29/19 
f 20/29/19 36/50/35 37/51/36 
f 38/52/37 22/33/21 21/31/20 
f 21/31/20 37/51/36 38/52/37 
f 39/53/38 23/35/22 22/33/21 
f 22/33/21 38/52/37 39/53/38 
f 25/54/24 8/37/7 23/35/22 
f 23/35/22 39/53/38 25/54/24 
f 40/55/39 24/38/23 25/39/24 
f 25/39/24 41/56/40 40/55/39 
f 42/57/41 26/40/25 24/38/23 
f 24/38/23 40/55/39 42/57/41 
f 43/58/42 27/41/26 26/40/25 
f 26/40/25 42/57/41 43/58/42 
f 44/59/43 28/42/27 27/41/26 
f 27/41/26 43/58/42 44/59/43 
f 45/60/44 29/43/28 28/42/27 
f 28/42/27 44/59/43 45/60/44 
f 46/61/45 30/44/29 29/43/28 
f 29/43/28 45/60/44 46/61/45 
f 47/62/46 31/45/30 30/44/29 
f 30/44/29 46/61/45 47/62/46 
f 48/63/47 32/46/31 31/45/30 
f 31/45/30 47/62/46 48/63/47 
f 49/64/48 33/47/32 32/46/31 
f 32/46/31 48/63/47 49/64/48 
f 50/65/49 34/48/33 33/47/32 
f 33/47/32 49/64/48 50/65/49 
f 51/66/50 35/49/34 34/48/33 
f 34/48/33 50/65/49 51/66/50 
f 52/67/51 36/50/35 35/49/34 
f 35/49/34 51/66/50 52/67/51 
f 53/68/52 37/51/36 36/50/35 
f 36/50/35 52/67/51 53/68/52 
f 54/69/53 38/52/37 37/51/36 
f 37/51/36 53/68/52 54/69/53 
f 55/70/54 39/53/38 38/52/37 
f 38/52/37 54/69/53 55/70/54 
f 41/71/40 25/54/24 39/53/38 
f 39/53/38 55/70/54 41/71/40 
f 56/72/55 40/55/39 41/56/40 
f 41/56/40 57/73/56 56/72/55 
f 58/74/57 42/57/41 40/55/39 
f 40/55/39 56/72/55 58/74/57 
f 59/75/58 43/58/42 42/57/41 
f 42/57/41 58/74/57 59/75/58 
f 60/76/59 44/59/43 43/58/42 
f 43/58/42 59/75/58 60/76/59 
f 61/77/60 45/60/44 44/59/43 
f 44/59/43 60/76/59 61/77/60 
f 62/78/61 46/61/45 45/60/44 
f 45/60/44 61/77/60 62/78/61 
f 63/79/62 47/62/46 46/61/45 
f 46/61/45 62/78/61 63/79/62 
f 64/5/63 48/63/47 47/62/46 
f 47/62/46 63/79/62 64/5/63 
f 65/80/64 49/64/48 48/63/47 
f 48/63/47 64/5/63 65/80/64 
f 66/81/65 50/65/49 49/64/48 
f 49/64/48 65/80/64 66/81/65 
f 67/82/66 51/66/50 50/65/49 
f 50/65/49 66/81/65 67/82/66 
f 68/83/67 52/67/51 51/66/50 
f 51/66/50 67/82/66 68/83/67 
f 69/84/68 53/68/52 52/67/51 
f 52/67/51 68/83/67 69/84/68 
f 70/85/69 54/69/53 53/68/52 
f 53/68/52 69/84/68 70/85/69 
f 71/86/70 55/70/54 54/69/53 
f 54/69/53 70/85/69 71/86/70 
f 57/87/56 41/71/40 55/70/54 
f 55/70/54 71/86/70 57/87/56 
f 72/88/71 56/72/55 57/73/56 
f 57/73/56 73/89/72 72/88/71 
f 74/90/73 58/74/57 56/72/55 
f 56/72/55 72/88/71 74/90/73 
f 75/91/74 59/75/58 58/74/57 
f 58/74/57 74/90/73 75/91/74 
f 76/92/75 60/76/59 59/75/58 
f 59/75/58 75/91/74 76/92/75 
f 77/93/76 61/77/60 60/76/59 
f 60/76/59 76/92/75 77/93/76 
f 78/94/77 62/78/61 61/77/60 
f 61/77/60 77/93/76 78/94/77 
f 79/95/78 63/79/62 62/78/61 
f 62/78/61 78/94/77 79/95/78 
f 80/96/79 64/5/63 63/79/62 
f 63/79/62 79/95/78 80/96/79 
f 81/97/80 65/80/64 64/5/63 
f 64/5/63 80/96/79 81/97/80 
f 82/98/81 66/81/65 65/80/64 
f 65/80/64 81/97/80 82/98/81 
f 83/99/82 67/82/66 66/81/65 
f 66/81/65 82/98/81 83/99/82 
f 84/100/83 68/83/67 67/82/66 
f 67/82/66 83/99/82 84/100/83 
f 85/101/84 69/84/68 68/83/67 
f 68/83/67 84/100/83 85/101/84 
f 86/102/85 70/85/69 69/84/68 
f 69/84/68 85/101/84 86/102/85 
f 87/103/86 71/86/70 70/85/69 
f 70/85/69 86/102/85 87/103/86 
f 73/104/72 57/87/56 71/86/70 
f 71/86/70 87/103/86 73/104/72 
f 88/105/87 72/88/71 73/89/72 
f 73/89/72 89/106/88 88/105/87 
f 90/107/89 74/90/73 72/88/71 
f 72/88/71 88/105/87 90/107/89 
f 91/108/90 75/91/74 74/90/73 
f 74/90/73 90/107/89 91/108/90 
f 92/109/91 76/92/75 75/91/74 
f 75/91/74 91/108/90 92/109/91 
f 93/110/92 77/93/76 76/92/75 
f 76/92/75 92/109/91 93/110/92 
f 94/111/93 78/94/77 77/93/76 
f 77/93/76 93/110/92 94/111/93 
f 95/112/94 79/95/78 78/94/77 
f 78/94/77 94/111/93 95/112/94 
f 96/113/95 80/96/79 79/95/78 
f 79/95/78 95/112/94 96/113/95 
f 97/114/96 81/97/80 80/96/79 
f 80/96/79 96/113/95 97/114/96 
f 98/115/97 82/98/81 81/97/80 
f 81/97/80 97/114/96 98/115/97 
f 99/116/98 83/99/82 82/98/81 
f 82/98/81 98/115/97 99/116/98 
f 100/117/99 84/100/83 83/99/82 
f 83/99/82 99/116/98 100/117/99 
f 101/118/100 85/101/84 84/100/83 
f 84/100/83 100/117/99 101/118/100 
f 102/119/101 86/102/85 85/101/84 
f 85/101/84 101/118/100 102/119/101 
f 103/120/102 87/103/86 86/102/85 
f 86/102/85 102/119/101 103/120/102 
f 89/121/88 73/104/72 87/103/86 
f 87/103/86 103/120/102 89/121/88 
f 104/122/103 88/105/87 89/106/88 
f 89/106/88 105/123/104 104/122/103 
f 106/124/105 90/107/89 88/105/87 
f 88/105/87 104/122/103 106/124/105 
f 107/125/106 91/108/90 90/107/89 
f 90/107/89 106/124/105 107/125/106 
f 108/126/107 92/109/91 91/108/90 
f 91/108/90 107/125/106 108/126/107 
f 109/127/108 93/110/92 92/109/91 
f 92/109/91 108/126/107 109/127/108 
f 110/128/109 94/111/93 93/110/92 
f 93/110/92 109/127/108 110/128/109 
f 111/129/110 95/112/94 94/111/93 
f 94/111/93 110/128/109 111/129/110 
f 112/130/111 96/113/95 95/112/94 
f 95/112/94 111/129/110 112/130/111 
f 113/131/112 97/114/96 96/113/95 
f 96/113/95 112/130/111 113/131/112 
f 114/132/113 98/115/97 97/114/96 
f 97/114/96 113/131/112 114/132/113 
f 115/133/114 99/116/98 98/115/97 
f 98/115/97 114/132/113 115/133/114 
f 116/134/115 100/117/99 99/116/98 
f 99/116/98 115/133/114 116/134/115 
f 117/135/116 101/118/100 100/117/99 
f 100/117/99 116/134/115 117/135/116 
f 118/136/117 102/119/101 101/118/100 
f 101/118/100 117/135/116 118/136/117 
f 119/137/118 103/120/102 102/119/101 
f 102/119/101 118/136/117 119/137/118 
f 105/138/104 89/121/88 103/120/102 
f 103/120/102 119/137/118 105/138/104 
f 120/2/5 104/122/103 105/123/104 
f 120/139/5 106/124/105 104/122/103 
f 120/140/5 107/125/106 106/124/105 
f 120/141/5 108/126/107 107/125/106 
f 120/142/5 109/127/108 108/126/107 
f 120/143/5 110/128/109 109/127/108 
f 120/144/5 111/129/110 110/128/109 
f 120/145/5 112/130/111 111/129/110 
f 120/146/5 113/131/112 112/130/111 
f 120/147/5 114/132/113 113/131/112 
f 120/148/5 115/133/114 114/132/113 
f 120/149/5 116/134/115 115/133/114 
f 120/150/5 117/135/116 116/134/115 
f 120/151/5 118/136/117 117/135/116 
f 120/152/5 119/137/118 118/136/117 
f 120/153/5 105/138/104 119/137/118 
# 232 faces

